<svg width="18" height="18" viewBox="0 0 18 18" fill="none" xmlns="http://www.w3.org/2000/svg">
  <path d="M8.16699 1.65V16.35C8.16699 16.8833 7.67533 17.2833 7.15866 17.1667C3.43366 16.3333 0.666992 12.9917 0.666992 9C0.666992 5.00834 3.43366 1.66667 7.15866 0.833336C7.67533 0.716669 8.16699 1.11667 8.16699 1.65ZM9.85866 1.65V7.325C9.85866 7.78334 10.2337 8.15834 10.692 8.15834H16.3503C16.8837 8.15834 17.2837 7.66667 17.167 7.14167C16.4587 4.00834 14.0003 1.54167 10.8753 0.833336C10.3503 0.716669 9.85866 1.11667 9.85866 1.65ZM9.85866 10.675V16.35C9.85866 16.8833 10.3503 17.2833 10.8753 17.1667C14.0087 16.4583 16.467 13.9833 17.1753 10.85C17.292 10.3333 16.8837 9.83333 16.3587 9.83333H10.7003C10.2337 9.84167 9.85866 10.2167 9.85866 10.675Z" fill="#808080"/>
</svg>
